<svg width="16" height="17" viewBox="0 0 16 17" fill="none" xmlns="http://www.w3.org/2000/svg">
<path fill-rule="evenodd" clip-rule="evenodd" d="M0 7C0 3.13 3.13 0 7 0C10.87 0 14 3.13 14 7C14 8.76212 13.3511 10.3708 12.2789 11.6005L15.7802 15.111C16.0337 15.3652 16.0332 15.7767 15.779 16.0302C15.5248 16.2837 15.1133 16.2832 14.8598 16.029L11.3373 12.4973C10.1453 13.4386 8.639 14 7 14C3.13 14 0 10.87 0 7ZM12.7 7C12.7 3.86 10.14 1.3 7 1.3C3.86 1.3 1.3 3.86 1.3 7C1.3 10.14 3.86 12.7 7 12.7C10.14 12.7 12.7 10.14 12.7 7Z" fill="#FF2000"/>
</svg>
