<svg width="94" height="32" viewBox="0 0 94 32" fill="none" xmlns="http://www.w3.org/2000/svg">
<path fill-rule="evenodd" clip-rule="evenodd" d="M26.5831 4.48008H4.72791L6.30476 0H28.1599L26.5831 4.48008ZM25.7942 6.71992H3.93867L2.36182 11.2H24.2173L25.7942 6.71992ZM23.432 13.4399H1.57686L0 17.9199H21.8551L23.432 13.4399Z" fill="#00A5FF"/>
<path fill-rule="evenodd" clip-rule="evenodd" d="M80.1472 27.7039H84.1213C85.6287 27.7039 86.5422 27.3494 87.1818 26.5524C87.5016 26.1535 87.9584 25.445 87.9584 24.1163C87.9584 22.7876 87.5016 21.8574 86.588 21.1933C86.0401 20.7944 85.3089 20.5731 84.0755 20.5731H80.1472V27.7039ZM74.8938 32V6.40009H92.0693L90.562 10.6966H80.1471V16.3654H84.3951C87.8212 16.3654 89.6026 17.1628 90.836 18.1814C91.7953 18.9788 93.4397 20.7504 93.4397 24.2491C93.4397 27.7039 91.7495 29.6083 90.3334 30.5825C88.689 31.6899 86.9535 32 83.4362 32H74.8938ZM59.6828 32V10.6966H52.0544V6.40009H73.2495L71.7421 10.6966H64.9815V32H59.6828ZM38.5333 16.6315H41.5026C42.4158 16.6315 42.8726 16.6315 43.3297 16.4983C44.5631 16.1442 45.3393 15.0812 45.3393 13.6196C45.3393 11.8921 44.5173 11.1395 43.3297 10.785C42.8271 10.6522 42.3246 10.6078 41.3198 10.6078H38.5333V16.6315ZM38.5791 21.0604V27.7923H42.2334C43.3298 27.7923 44.3346 27.7039 45.0653 27.0393C45.7961 26.3752 46.1159 25.5338 46.1159 24.4264C46.1159 23.585 45.8877 22.7876 45.4309 22.2119C44.6543 21.2817 43.695 21.0604 42.0506 21.0604H38.5791ZM47.0297 18.3587V18.4471C48.0345 18.8015 48.9935 19.4217 49.4961 19.8202C51.0492 21.0604 51.7346 22.6992 51.7346 24.8249C51.7346 28.324 49.8159 30.8485 46.6641 31.6455C45.7048 31.9112 44.7 32 42.827 32H33.2799V6.40009H41.7307C43.4666 6.40009 44.6542 6.48889 45.7048 6.75455C48.7653 7.55192 50.7752 9.58916 50.7752 12.8223C50.7752 14.5498 50.1357 16.0113 49.0851 16.9856C48.6283 17.4285 47.9887 17.9602 47.0297 18.3587V18.3587Z" fill="#022D9A"/>
</svg>
